<svg width="16" height="16" viewBox="0 0 16 16" fill="none" xmlns="http://www.w3.org/2000/svg">
<path d="M3.33341 14.6667C3.1566 14.6667 2.98703 14.5964 2.86201 14.4714C2.73699 14.3464 2.66675 14.1768 2.66675 14V2C2.66675 1.82319 2.73699 1.65362 2.86201 1.5286C2.98703 1.40357 3.1566 1.33333 3.33341 1.33333H12.6667C12.8436 1.33333 13.0131 1.40357 13.1382 1.5286C13.2632 1.65362 13.3334 1.82319 13.3334 2V4H12.0001V2.66667H4.00008V13.3333H12.0001V12H13.3334V14C13.3334 14.1768 13.2632 14.3464 13.1382 14.4714C13.0131 14.5964 12.8436 14.6667 12.6667 14.6667H3.33341ZM12.0001 10.6667V8.66667H7.33341V7.33333H12.0001V5.33333L15.3334 8L12.0001 10.6667Z" fill="white" fill-opacity="0.8"/>
</svg>
