<svg width="13" height="13" viewBox="0 0 13 13" fill="none" xmlns="http://www.w3.org/2000/svg">
<path d="M9.51808 8.69327L12.0165 11.1911L11.1911 12.0165L8.69325 9.5181C7.76384 10.2631 6.60783 10.6684 5.41666 10.6667C2.51866 10.6667 0.166664 8.31469 0.166664 5.41669C0.166664 2.51869 2.51866 0.166687 5.41666 0.166687C8.31466 0.166687 10.6667 2.51869 10.6667 5.41669C10.6684 6.60785 10.2631 7.76387 9.51808 8.69327ZM8.34791 8.26044C9.08823 7.49912 9.50167 6.4786 9.5 5.41669C9.5 3.16035 7.67241 1.33335 5.41666 1.33335C3.16033 1.33335 1.33333 3.16035 1.33333 5.41669C1.33333 7.67244 3.16033 9.50002 5.41666 9.50002C6.47858 9.50169 7.4991 9.08825 8.26041 8.34794L8.34791 8.26044Z" fill="white"/>
</svg>
