<svg width="12" height="12" viewBox="0 0 12 12" fill="none" xmlns="http://www.w3.org/2000/svg">
<path d="M7.73573 1.4541H3.65791L3.31973 3.34356L7.00046 3.34792C8.81355 3.34792 9.3481 4.00683 9.33282 5.09774C9.3241 5.65628 9.08191 6.60319 8.97719 6.91083C8.69791 7.72901 8.1241 8.66065 5.97282 8.65847L2.39464 8.65628L2.05646 10.5479H6.12555C7.56119 10.5479 8.16991 10.3799 8.81791 10.0832C10.2514 9.41774 11.1045 8.00392 11.447 6.1581C11.9554 3.40901 11.3226 1.4541 7.73573 1.4541Z" fill="white"/>
<path d="M1.89814 5.052C0.829049 5.052 0.676322 5.748 0.575958 6.16909C0.442867 6.71891 0.399231 6.94364 0.399231 6.94364H4.57523C5.64432 6.94364 5.79705 6.24764 5.89741 5.82655C6.0305 5.27673 6.07414 5.052 6.07414 5.052H1.89814Z" fill="white"/>
</svg>
