<svg width="112" height="33" viewBox="0 0 112 33" fill="none" xmlns="http://www.w3.org/2000/svg">
<path d="M24.3493 2.0458H11.4659L10.3982 8.05001L22.0238 8.06411C27.7494 8.06411 29.4425 10.1554 29.3942 13.6272C29.3693 15.4058 28.603 18.4122 28.272 19.3869C27.3896 21.9851 25.5774 24.95 18.7818 24.9382L7.48093 24.9335L6.41089 30.9401H19.2654C23.7995 30.9401 25.7293 30.4096 27.7697 29.46C32.2967 27.357 34.9905 22.8619 36.0691 16.9956C37.6765 8.25999 35.675 2.0458 24.3493 2.0458Z" fill="white"/>
<path d="M64.1931 30.9542L65.1012 25.7335H76.1069C76.9713 25.7335 77.5772 25.2109 77.7065 24.3412C77.8794 23.4707 77.4471 22.9489 76.5827 22.9489H71.3205C67.1688 22.9489 65.1798 20.5129 65.915 16.3359C66.6502 12.1588 69.5044 9.72363 73.6553 9.72363H85.6119L84.661 14.9443H74.1233C73.2581 14.9443 72.653 15.4661 72.5229 16.3359C72.35 17.2064 72.7823 17.7282 73.6475 17.7282H78.9097C83.0606 17.7282 85.0496 20.165 84.3152 24.3412C83.5808 28.5174 80.7686 30.9542 76.6177 30.9542H64.1931Z" fill="white"/>
<path d="M47.4323 30.9534C40.5993 30.9534 37.5286 27.2113 38.7396 20.3366C39.9077 13.4626 44.3187 9.72048 51.1509 9.72048H63.2602L59.5407 30.9542L47.4323 30.9534ZM55.3026 14.9419H52.1875C48.4688 14.9419 46.2688 16.5952 45.6232 20.3366C44.9316 24.0787 46.3155 25.732 50.0342 25.732H53.4421L55.3026 14.9419Z" fill="white"/>
<path d="M100.618 30.9534L102.781 18.5963C103.17 16.1596 102.187 15.1159 99.7655 15.1159H96.3217L93.5539 30.9534H86.5449L91.6124 2.0458H98.6214L97.2726 9.72441H102.522C108.662 9.72441 110.868 12.4221 109.787 18.6003L107.624 30.9573L100.618 30.9534Z" fill="white"/>
<path d="M5.90701 13.4767C2.53257 13.4767 2.04895 15.6894 1.72965 17.0261C1.31144 18.7773 1.17438 19.4864 1.17438 19.4864H14.3653C17.7398 19.4864 18.2234 17.2737 18.5427 15.937C18.9609 14.1858 19.098 13.4767 19.098 13.4767H5.90701Z" fill="white"/>
</svg>
