<svg width="14" height="15" viewBox="0 0 14 15" fill="none" xmlns="http://www.w3.org/2000/svg">
<g opacity="0.5">
<path d="M6.99999 2.25C10.1453 2.25 12.7622 4.51333 13.3111 7.5C12.7627 10.4867 10.1453 12.75 6.99999 12.75C3.85465 12.75 1.23782 10.4867 0.688904 7.5C1.23724 4.51333 3.85465 2.25 6.99999 2.25ZM6.99999 11.5833C8.18968 11.5831 9.34405 11.179 10.2742 10.4372C11.2043 9.69538 11.855 8.65983 12.1199 7.5C11.854 6.34109 11.2029 5.30667 10.2729 4.56585C9.34284 3.82503 8.189 3.42164 6.99999 3.42164C5.81098 3.42164 4.65714 3.82503 3.72712 4.56585C2.79711 5.30667 2.14593 6.34109 1.88007 7.5C2.14496 8.65983 2.79571 9.69538 3.72582 10.4372C4.65593 11.179 5.8103 11.5831 6.99999 11.5833ZM6.99999 10.125C6.30379 10.125 5.63612 9.84844 5.14383 9.35615C4.65155 8.86387 4.37499 8.19619 4.37499 7.5C4.37499 6.80381 4.65155 6.13613 5.14383 5.64384C5.63612 5.15156 6.30379 4.875 6.99999 4.875C7.69618 4.875 8.36386 5.15156 8.85614 5.64384C9.34843 6.13613 9.62499 6.80381 9.62499 7.5C9.62499 8.19619 9.34843 8.86387 8.85614 9.35615C8.36386 9.84844 7.69618 10.125 6.99999 10.125ZM6.99999 8.95833C7.38676 8.95833 7.75769 8.80469 8.03119 8.5312C8.30468 8.25771 8.45832 7.88677 8.45832 7.5C8.45832 7.11323 8.30468 6.74229 8.03119 6.4688C7.75769 6.19531 7.38676 6.04167 6.99999 6.04167C6.61321 6.04167 6.24228 6.19531 5.96879 6.4688C5.6953 6.74229 5.54165 7.11323 5.54165 7.5C5.54165 7.88677 5.6953 8.25771 5.96879 8.5312C6.24228 8.80469 6.61321 8.95833 6.99999 8.95833Z" fill="#09121F"/>
</g>
</svg>
