<svg width="13" height="14" viewBox="0 0 13 14" fill="none" xmlns="http://www.w3.org/2000/svg">
<path d="M7.50001 0.333377C8.48817 0.332373 9.46415 0.551492 10.357 0.974819C11.2499 1.39815 12.0373 2.01505 12.662 2.78071L8.44268 7.00004L12.662 11.2194C12.0373 11.985 11.2499 12.6019 10.357 13.0253C9.46415 13.4486 8.48817 13.6677 7.50001 13.6667C3.81801 13.6667 0.833344 10.682 0.833344 7.00004C0.833344 3.31804 3.81801 0.333377 7.50001 0.333377ZM7.50001 2.33338C7.23479 2.33338 6.98044 2.43873 6.7929 2.62627C6.60537 2.81381 6.50001 3.06816 6.50001 3.33338C6.50001 3.59859 6.60537 3.85295 6.7929 4.04048C6.98044 4.22802 7.23479 4.33338 7.50001 4.33338C7.76523 4.33338 8.01958 4.22802 8.20712 4.04048C8.39465 3.85295 8.50001 3.59859 8.50001 3.33338C8.50001 3.06816 8.39465 2.81381 8.20712 2.62627C8.01958 2.43873 7.76523 2.33338 7.50001 2.33338Z" fill="white"/>
</svg>
