<svg width="13" height="15" viewBox="0 0 13 15" fill="none" xmlns="http://www.w3.org/2000/svg">
<path d="M11.8886 7.00001L12.69 7.48067C12.7394 7.51027 12.7803 7.55217 12.8087 7.6023C12.8372 7.65242 12.8521 7.70905 12.8521 7.76667C12.8521 7.82429 12.8372 7.88092 12.8087 7.93105C12.7803 7.98117 12.7394 8.02308 12.69 8.05267L6.49997 11.7667L0.309974 8.05267C0.260539 8.02308 0.219618 7.98117 0.191205 7.93105C0.162793 7.88092 0.147858 7.82429 0.147858 7.76667C0.147858 7.70905 0.162793 7.65242 0.191205 7.6023C0.219618 7.55217 0.260539 7.51027 0.309974 7.48067L1.11131 7.00001L6.49997 10.2333L11.8886 7.00001ZM11.8886 10.1333L12.69 10.614C12.7394 10.6436 12.7803 10.6855 12.8087 10.7356C12.8372 10.7858 12.8521 10.8424 12.8521 10.9C12.8521 10.9576 12.8372 11.0143 12.8087 11.0644C12.7803 11.1145 12.7394 11.1564 12.69 11.186L6.84331 14.694C6.73962 14.7563 6.62094 14.7892 6.49997 14.7892C6.37901 14.7892 6.26033 14.7563 6.15664 14.694L0.309974 11.186C0.260539 11.1564 0.219618 11.1145 0.191205 11.0644C0.162793 11.0143 0.147858 10.9576 0.147858 10.9C0.147858 10.8424 0.162793 10.7858 0.191205 10.7356C0.219618 10.6855 0.260539 10.6436 0.309974 10.614L1.11131 10.1333L6.49997 13.3667L11.8886 10.1333ZM6.84264 0.872672L12.69 4.38067C12.7394 4.41027 12.7803 4.45217 12.8087 4.5023C12.8372 4.55242 12.8521 4.60905 12.8521 4.66667C12.8521 4.72429 12.8372 4.78092 12.8087 4.83105C12.7803 4.88117 12.7394 4.92308 12.69 4.95267L6.49997 8.66667L0.309974 4.95267C0.260539 4.92308 0.219618 4.88117 0.191205 4.83105C0.162793 4.78092 0.147858 4.72429 0.147858 4.66667C0.147858 4.60905 0.162793 4.55242 0.191205 4.5023C0.219618 4.45217 0.260539 4.41027 0.309974 4.38067L6.15664 0.872672C6.26033 0.810377 6.37901 0.777466 6.49997 0.777466C6.62094 0.777466 6.73962 0.810377 6.84331 0.872672H6.84264Z" fill="white"/>
</svg>
