<svg width="13" height="14" viewBox="0 0 13 14" fill="none" xmlns="http://www.w3.org/2000/svg">
<path d="M1.88 9.66664C1.84867 9.44581 1.83307 9.22302 1.83333 8.99998V8.33331H0.5V6.99998H1.83333V6.33331C1.83333 6.10664 1.84933 5.88464 1.88 5.66664H0.5V4.33331H2.28267C2.69131 3.47432 3.35168 2.76002 4.176 2.28531L3.476 1.58531L4.42 0.643311L5.542 1.76598C6.17428 1.63385 6.82705 1.63385 7.45933 1.76598L8.58133 0.643311L9.52467 1.58664L8.82467 2.28664C9.64854 2.7611 10.3086 3.47491 10.7173 4.33331H12.5V5.66664H11.12C11.1507 5.88464 11.1667 6.10664 11.1667 6.33331V6.99998H12.5V8.33331H11.1667V8.99998C11.1667 9.22664 11.1507 9.44864 11.12 9.66664H12.5V11H10.7173C10.3391 11.7984 9.74196 12.473 8.99539 12.9455C8.24882 13.4179 7.38349 13.6687 6.5 13.6687C5.61651 13.6687 4.75118 13.4179 4.00461 12.9455C3.25804 12.473 2.66092 11.7984 2.28267 11H0.5V9.66664H1.88ZM4.5 5.66664V6.99998H8.5V5.66664H4.5ZM4.5 8.33331V9.66664H8.5V8.33331H4.5Z" fill="white"/>
</svg>
