<svg width="128" height="128" xmlns="http://www.w3.org/2000/svg">
 <title/>

 <g>
  <title>background</title>
  <rect fill="none" id="canvas_background" height="402" width="582" y="-1" x="-1"/>
 </g>
 <g>
  <title>Layer 1</title>
  <circle fill="#ffffff" id="svg_1" r="20.55" cy="49.64" cx="64"/>
  <path fill="#ffffff" id="svg_2" d="m112.34,47.82a8.26,8.26 0 0 0 -1.69,-11.73l-3.5,-2.54a8.26,8.26 0 0 1 -3.38,-7.4l0.37,-4.31a8.26,8.26 0 0 0 -7.76,-9l-4.32,-0.24a8.26,8.26 0 0 1 -6.84,-4.4l-2,-3.83a8.26,8.26 0 0 0 -11.39,-3.3l-3.76,2.13a8.26,8.26 0 0 1 -8.14,0l-3.76,-2.13a8.26,8.26 0 0 0 -11.38,3.34l-2,3.83a8.26,8.26 0 0 1 -6.84,4.4l-4.32,0.24a8.26,8.26 0 0 0 -7.76,9l0.37,4.31a8.26,8.26 0 0 1 -3.38,7.4l-3.5,2.54a8.26,8.26 0 0 0 -1.69,11.73l2.64,3.42a8.26,8.26 0 0 1 1.16,8.05l-1.57,4a8.26,8.26 0 0 0 4.92,10.78l4.07,1.45a8.26,8.26 0 0 1 5.33,6.15l0.78,3.8l-10.39,33.77l16.48,-5.16l10.26,13.88l9.37,-30.63a8.26,8.26 0 0 0 10.07,0.37l9.86,30.26l10.26,-13.88l16.48,5.16l-10.64,-32.64c0.07,-0.23 0.13,-0.45 0.18,-0.69l0.85,-4.24a8.26,8.26 0 0 1 5.33,-6.15l4.07,-1.45a8.26,8.26 0 0 0 4.92,-10.78l-1.57,-4a8.26,8.26 0 0 1 1.16,-8.05l2.65,-3.46zm-76.89,1.82a28.55,28.55 0 1 1 28.55,28.55a28.58,28.58 0 0 1 -28.55,-28.55z"/>
 </g>
</svg>